<svg width="30" height="30" viewBox="0 0 30 30" fill="none" xmlns="http://www.w3.org/2000/svg">
<path d="M15.8883 0.37284C15.3907 -0.12428 14.6129 -0.12428 14.1211 0.37284L0.401553 14.1346C-0.113145 14.6499 -0.13602 15.5168 0.350084 16.0624C0.601714 16.3474 0.944846 16.4868 1.28226 16.4868C1.60252 16.4868 1.91705 16.3656 2.16868 16.1109L4.31898 13.9527V28.636C4.31898 29.3877 4.89658 30 5.60572 30H24.3922C25.1013 30 25.679 29.3877 25.679 28.636V13.9588L27.8292 16.117C28.3439 16.6323 29.1617 16.6081 29.6478 16.0624C30.134 15.5168 30.1168 14.6499 29.5964 14.1346L15.8883 0.37284ZM23.1055 11.5156V27.278H6.89247V11.5156C6.89247 11.4732 6.88675 11.4307 6.88103 11.3883L15.0018 3.24038L23.1226 11.3883C23.1169 11.4307 23.1055 11.4732 23.1055 11.5156Z" fill="#FF0000"/>
</svg>
