<svg xmlns="http://www.w3.org/2000/svg" version="1.1" xmlns:xlink="http://www.w3.org/1999/xlink" width="512" height="512" x="0" y="0" viewBox="0 0 32 32" style="enable-background:new 0 0 512 512" xml:space="preserve" fill-rule="evenodd" class=""><g><path d="m4 13.467-.354.3a1 1 0 1 1-1.291-1.528l11.708-9.908a2.996 2.996 0 0 1 3.874 0l11.708 9.908a1 1 0 1 1-1.291 1.527l-.354-.3v13.54a3.001 3.001 0 0 1-3 3H7a3 3 0 0 1-3-3zm22-1.693-9.354-7.916a1 1 0 0 0-1.292 0L6 11.774v15.232a1.004 1.004 0 0 0 1 1.001h18A1.004 1.004 0 0 0 26 27.006z" fill="#ff0000" opacity="1" data-original="#000000" class=""></path></g></svg>