<svg xmlns="http://www.w3.org/2000/svg" version="1.1" xmlns:xlink="http://www.w3.org/1999/xlink" width="512" height="512" x="0" y="0" viewBox="0 0 173.397 173.397" style="enable-background:new 0 0 512 512" xml:space="preserve" fill-rule="evenodd" class=""><g><path d="M88.727 162.471c62.187-26.403 71.59-72.838 68.29-133.051a5.146 5.146 0 0 0-4.723-4.87c-15.688-1.347-36.303-5.963-64.183-13.847a4.955 4.955 0 0 0-2.815 0c-27.88 7.885-48.496 12.5-64.184 13.847a5.146 5.146 0 0 0-4.722 4.87c-3.366 61.275 6.344 106.767 68.29 133.051 1.342.57 2.705.57 4.047 0zm-26.145-87.88h2.06V59.985c0-12.146 9.908-22.054 22.054-22.054s22.054 9.908 22.054 22.054V74.59h2.06a3.927 3.927 0 0 1 3.916 3.916v39.159a3.927 3.927 0 0 1-3.916 3.916H62.582a3.927 3.927 0 0 1-3.916-3.916v-39.16a3.927 3.927 0 0 1 3.916-3.915zm10.414 0h27.4V59.984c0-7.534-6.165-13.7-13.7-13.7-7.535 0-13.7 6.165-13.7 13.7zm13.7 9.274a7.97 7.97 0 0 1 4.534 14.523v9.385a4.548 4.548 0 0 1-4.534 4.535 4.548 4.548 0 0 1-4.534-4.535v-9.385a7.97 7.97 0 0 1 4.534-14.523z" fill="#ff0000" opacity="1" data-original="#000000" class=""></path></g></svg>